<svg xmlns="http://www.w3.org/2000/svg" viewBox="0 0 64 64" role="img" aria-label="EcoThread">
  <title>EcoThread</title>
  <rect width="64" height="64" rx="14" fill="#F4F1EA"/>
  <g fill="none" stroke="#2F5D3A" stroke-width="2.4" stroke-linecap="round" stroke-linejoin="round">
    <path d="M32 12c-9 4-15 11-15 20 0 7 5 12 12 12 6 0 11-3 14-8" />
    <path d="M32 12c2 5 3 11 1 16-2 5-6 8-12 8" />
    <path d="M32 12c0 0 5 0 9 3" />
  </g>
  <circle cx="46" cy="20" r="2.4" fill="#2F5D3A"/>
  <path d="M22 50c4-2 9-3 15-3 5 0 9 1 13 3" fill="none" stroke="#2F5D3A" stroke-width="2.4" stroke-linecap="round"/>
</svg>
